<mxfile host="app.diagrams.net" modified="2023-09-27T04:43:01.777Z" agent="Mozilla/5.0 (Linux; Android 10; K) AppleWebKit/537.36 (KHTML, like Gecko) Chrome/117.0.0.0 Mobile Safari/537.36 EdgA/117.0.2045.38" etag="Cj1Et-MkcTDgFnSipFzo" version="21.8.2" type="github">
  <diagram name="第 1 页" id="Pw0bu2XJX0efayfi-Oyi">
    <mxGraphModel dx="466" dy="761" grid="1" gridSize="10" guides="1" tooltips="1" connect="1" arrows="1" fold="1" page="1" pageScale="1" pageWidth="827" pageHeight="1169" math="0" shadow="0">
      <root>
        <mxCell id="0" />
        <mxCell id="1" parent="0" />
        <mxCell id="rBEMcl2NehsFxhfhoB2u-1" value="第一天&lt;br&gt;9.29" style="rounded=0;whiteSpace=wrap;html=1;labelBackgroundColor=none;" parent="1" vertex="1">
          <mxGeometry x="30" y="30" width="120" height="60" as="geometry" />
        </mxCell>
        <mxCell id="rBEMcl2NehsFxhfhoB2u-3" value="" style="html=1;shadow=0;dashed=0;align=center;verticalAlign=middle;shape=mxgraph.arrows2.arrow;dy=0.6;dx=40;notch=0;labelBackgroundColor=none;" parent="1" vertex="1">
          <mxGeometry x="150" y="32.5" width="70" height="55" as="geometry" />
        </mxCell>
        <mxCell id="rBEMcl2NehsFxhfhoB2u-5" value="08:27乘坐高铁&lt;br&gt;G5397" style="rounded=0;whiteSpace=wrap;html=1;labelBackgroundColor=none;" parent="1" vertex="1">
          <mxGeometry x="220" y="32.5" width="120" height="60" as="geometry" />
        </mxCell>
        <mxCell id="rBEMcl2NehsFxhfhoB2u-7" value="" style="html=1;shadow=0;dashed=0;align=center;verticalAlign=middle;shape=mxgraph.arrows2.arrow;dy=0.6;dx=40;notch=0;labelBackgroundColor=none;" parent="1" vertex="1">
          <mxGeometry x="340" y="32.5" width="70" height="55" as="geometry" />
        </mxCell>
        <mxCell id="rBEMcl2NehsFxhfhoB2u-8" value="贵阳北站&lt;br&gt;换乘" style="rhombus;whiteSpace=wrap;html=1;labelBackgroundColor=none;" parent="1" vertex="1">
          <mxGeometry x="410" y="20" width="80" height="80" as="geometry" />
        </mxCell>
        <mxCell id="rBEMcl2NehsFxhfhoB2u-10" value="" style="html=1;shadow=0;dashed=0;align=center;verticalAlign=middle;shape=mxgraph.arrows2.arrow;dy=0.6;dx=40;notch=0;labelBackgroundColor=none;" parent="1" vertex="1">
          <mxGeometry x="490" y="32.5" width="70" height="55" as="geometry" />
        </mxCell>
        <mxCell id="rBEMcl2NehsFxhfhoB2u-11" value="17:44到达&lt;br&gt;西安北站" style="rounded=0;whiteSpace=wrap;html=1;labelBackgroundColor=none;" parent="1" vertex="1">
          <mxGeometry x="560" y="32.5" width="120" height="60" as="geometry" />
        </mxCell>
        <mxCell id="rBEMcl2NehsFxhfhoB2u-12" value="" style="html=1;shadow=0;dashed=0;align=center;verticalAlign=middle;shape=mxgraph.arrows2.bendArrow;dy=15;dx=38;notch=0;arrowHead=55;rounded=0;direction=south;labelBackgroundColor=none;" parent="1" vertex="1">
          <mxGeometry x="680" y="40" width="80" height="100" as="geometry" />
        </mxCell>
        <mxCell id="rBEMcl2NehsFxhfhoB2u-14" value="乘坐地铁前往酒店" style="rounded=0;whiteSpace=wrap;html=1;labelBackgroundColor=none;" parent="1" vertex="1">
          <mxGeometry x="670" y="140" width="120" height="60" as="geometry" />
        </mxCell>
        <mxCell id="rBEMcl2NehsFxhfhoB2u-15" value="提前在微信注册西安地铁小程序" style="text;html=1;strokeColor=none;fillColor=none;align=center;verticalAlign=middle;whiteSpace=wrap;rounded=0;labelBackgroundColor=none;" parent="1" vertex="1">
          <mxGeometry x="670" y="200" width="120" height="40" as="geometry" />
        </mxCell>
        <mxCell id="rBEMcl2NehsFxhfhoB2u-17" value="" style="html=1;shadow=0;dashed=0;align=center;verticalAlign=middle;shape=mxgraph.arrows2.arrow;dy=0.6;dx=40;notch=0;direction=west;labelBackgroundColor=none;" parent="1" vertex="1">
          <mxGeometry x="600" y="142.5" width="70" height="55" as="geometry" />
        </mxCell>
        <mxCell id="rBEMcl2NehsFxhfhoB2u-18" value="吃饭" style="rounded=0;whiteSpace=wrap;html=1;labelBackgroundColor=none;" parent="1" vertex="1">
          <mxGeometry x="480" y="142.5" width="120" height="60" as="geometry" />
        </mxCell>
        <mxCell id="rBEMcl2NehsFxhfhoB2u-30" style="edgeStyle=orthogonalEdgeStyle;rounded=0;orthogonalLoop=1;jettySize=auto;html=1;exitX=1;exitY=0;exitDx=0;exitDy=0;exitPerimeter=0;entryX=1;entryY=0.5;entryDx=0;entryDy=0;labelBackgroundColor=none;fontColor=default;" parent="1" source="rBEMcl2NehsFxhfhoB2u-19" target="rBEMcl2NehsFxhfhoB2u-29" edge="1">
          <mxGeometry relative="1" as="geometry">
            <Array as="points">
              <mxPoint x="430" y="223" />
              <mxPoint x="390" y="223" />
            </Array>
          </mxGeometry>
        </mxCell>
        <mxCell id="rBEMcl2NehsFxhfhoB2u-33" style="edgeStyle=orthogonalEdgeStyle;rounded=0;orthogonalLoop=1;jettySize=auto;html=1;exitX=1;exitY=1;exitDx=0;exitDy=0;exitPerimeter=0;entryX=1;entryY=0.25;entryDx=0;entryDy=0;labelBackgroundColor=none;fontColor=default;" parent="1" source="rBEMcl2NehsFxhfhoB2u-19" target="rBEMcl2NehsFxhfhoB2u-20" edge="1">
          <mxGeometry relative="1" as="geometry">
            <Array as="points">
              <mxPoint x="430" y="120" />
              <mxPoint x="390" y="120" />
            </Array>
          </mxGeometry>
        </mxCell>
        <mxCell id="rBEMcl2NehsFxhfhoB2u-19" value="" style="strokeWidth=2;html=1;shape=mxgraph.flowchart.annotation_2;align=left;labelPosition=right;pointerEvents=1;direction=west;labelBackgroundColor=none;" parent="1" vertex="1">
          <mxGeometry x="430" y="122.5" width="50" height="100" as="geometry" />
        </mxCell>
        <mxCell id="rBEMcl2NehsFxhfhoB2u-20" value="大唐不夜城" style="rounded=0;whiteSpace=wrap;html=1;labelBackgroundColor=none;" parent="1" vertex="1">
          <mxGeometry x="250" y="110" width="100" height="42.5" as="geometry" />
        </mxCell>
        <mxCell id="rBEMcl2NehsFxhfhoB2u-23" value="吃得快" style="text;html=1;strokeColor=none;fillColor=none;align=center;verticalAlign=middle;whiteSpace=wrap;rounded=0;labelBackgroundColor=none;" parent="1" vertex="1">
          <mxGeometry x="360" y="122.5" width="60" height="30" as="geometry" />
        </mxCell>
        <mxCell id="rBEMcl2NehsFxhfhoB2u-27" value="吃不快" style="text;html=1;strokeColor=none;fillColor=none;align=center;verticalAlign=middle;whiteSpace=wrap;rounded=0;labelBackgroundColor=none;" parent="1" vertex="1">
          <mxGeometry x="370" y="222.5" width="60" height="30" as="geometry" />
        </mxCell>
        <mxCell id="rBEMcl2NehsFxhfhoB2u-29" value="回酒店休息" style="rounded=0;whiteSpace=wrap;html=1;labelBackgroundColor=none;" parent="1" vertex="1">
          <mxGeometry x="250" y="202.5" width="100" height="40" as="geometry" />
        </mxCell>
        <mxCell id="rBEMcl2NehsFxhfhoB2u-34" value="第二天&lt;br&gt;9.30" style="rounded=0;whiteSpace=wrap;html=1;labelBackgroundColor=none;" parent="1" vertex="1">
          <mxGeometry x="30" y="290" width="120" height="60" as="geometry" />
        </mxCell>
        <mxCell id="rBEMcl2NehsFxhfhoB2u-35" value="" style="html=1;shadow=0;dashed=0;align=center;verticalAlign=middle;shape=mxgraph.arrows2.arrow;dy=0.6;dx=40;notch=0;labelBackgroundColor=none;" parent="1" vertex="1">
          <mxGeometry x="150" y="292.5" width="70" height="55" as="geometry" />
        </mxCell>
        <mxCell id="rBEMcl2NehsFxhfhoB2u-36" value="西安站（火车）" style="rounded=0;whiteSpace=wrap;html=1;labelBackgroundColor=none;" parent="1" vertex="1">
          <mxGeometry x="220" y="292.5" width="120" height="60" as="geometry" />
        </mxCell>
        <mxCell id="rBEMcl2NehsFxhfhoB2u-53" value="市区内游玩" style="text;html=1;strokeColor=none;fillColor=none;align=center;verticalAlign=middle;whiteSpace=wrap;rounded=0;labelBackgroundColor=none;" parent="1" vertex="1">
          <mxGeometry x="60" y="352.5" width="70" height="30" as="geometry" />
        </mxCell>
        <mxCell id="fsie3WsnsPSllkOvM6rk-2" value="" style="html=1;shadow=0;dashed=0;align=center;verticalAlign=middle;shape=mxgraph.arrows2.arrow;dy=0.6;dx=40;notch=0;labelBackgroundColor=none;" parent="1" vertex="1">
          <mxGeometry x="340" y="292.5" width="70" height="55" as="geometry" />
        </mxCell>
        <mxCell id="fsie3WsnsPSllkOvM6rk-3" value="华山站" style="rounded=0;whiteSpace=wrap;html=1;labelBackgroundColor=none;" parent="1" vertex="1">
          <mxGeometry x="410" y="292.5" width="120" height="60" as="geometry" />
        </mxCell>
        <mxCell id="fsie3WsnsPSllkOvM6rk-4" value="" style="html=1;shadow=0;dashed=0;align=center;verticalAlign=middle;shape=mxgraph.arrows2.arrow;dy=0.6;dx=40;notch=0;labelBackgroundColor=none;" parent="1" vertex="1">
          <mxGeometry x="530" y="292.5" width="70" height="55" as="geometry" />
        </mxCell>
        <mxCell id="fsie3WsnsPSllkOvM6rk-5" value="华山&lt;br&gt;（北上西下 索道）" style="rounded=0;whiteSpace=wrap;html=1;labelBackgroundColor=none;" parent="1" vertex="1">
          <mxGeometry x="600" y="292.5" width="120" height="60" as="geometry" />
        </mxCell>
      </root>
    </mxGraphModel>
  </diagram>
</mxfile>
